<svg width="1440" height="400" viewBox="0 0 1440 400" fill="none" xmlns="http://www.w3.org/2000/svg">
<rect x="0.25" y="300.25" width="102.874" height="99.5" stroke="#808080" stroke-opacity="0.1" stroke-width="0.5"/>
<rect x="0.25" y="300.25" width="102.874" height="99.5" stroke="#808080" stroke-opacity="0.1" stroke-width="0.5"/>
<rect x="102.59" y="300.25" width="102.874" height="99.5" stroke="#808080" stroke-opacity="0.1" stroke-width="0.5"/>
<rect x="205.964" y="300.25" width="102.874" height="99.5" stroke="#808080" stroke-opacity="0.1" stroke-width="0.5"/>
<rect x="308.305" y="300.25" width="102.874" height="99.5" stroke="#808080" stroke-opacity="0.1" stroke-width="0.5"/>
<rect x="411.678" y="300.25" width="102.874" height="99.5" stroke="#808080" stroke-opacity="0.1" stroke-width="0.5"/>
<rect x="514.019" y="300.25" width="102.874" height="99.5" stroke="#808080" stroke-opacity="0.1" stroke-width="0.5"/>
<rect x="617.393" y="300.25" width="102.874" height="99.5" stroke="#808080" stroke-opacity="0.1" stroke-width="0.5"/>
<rect x="719.733" y="300.25" width="102.874" height="99.5" stroke="#808080" stroke-opacity="0.1" stroke-width="0.5"/>
<rect x="823.107" y="300.25" width="102.874" height="99.5" stroke="#808080" stroke-opacity="0.1" stroke-width="0.5"/>
<rect x="925.448" y="300.25" width="102.874" height="99.5" stroke="#808080" stroke-opacity="0.1" stroke-width="0.5"/>
<rect x="1028.82" y="300.25" width="102.874" height="99.5" stroke="#808080" stroke-opacity="0.1" stroke-width="0.5"/>
<rect x="1131.16" y="300.25" width="102.874" height="99.5" stroke="#808080" stroke-opacity="0.1" stroke-width="0.5"/>
<rect x="1234.54" y="300.25" width="102.874" height="99.5" stroke="#808080" stroke-opacity="0.1" stroke-width="0.5"/>
<rect x="1336.88" y="300.25" width="102.874" height="99.5" stroke="#808080" stroke-opacity="0.1" stroke-width="0.5"/>
<rect x="0.25" y="200.25" width="102.874" height="99.5" stroke="#808080" stroke-opacity="0.1" stroke-width="0.5"/>
<rect x="102.59" y="200.25" width="102.874" height="99.5" stroke="#808080" stroke-opacity="0.1" stroke-width="0.5"/>
<rect x="205.964" y="200.25" width="102.874" height="99.5" stroke="#808080" stroke-opacity="0.1" stroke-width="0.5"/>
<rect x="308.305" y="200.25" width="102.874" height="99.5" stroke="#808080" stroke-opacity="0.1" stroke-width="0.5"/>
<rect x="411.678" y="200.25" width="102.874" height="99.5" stroke="#808080" stroke-opacity="0.1" stroke-width="0.5"/>
<rect x="514.019" y="200.25" width="102.874" height="99.5" stroke="#808080" stroke-opacity="0.1" stroke-width="0.5"/>
<rect x="617.393" y="200.25" width="102.874" height="99.5" stroke="#808080" stroke-opacity="0.1" stroke-width="0.5"/>
<rect x="719.733" y="200.25" width="102.874" height="99.5" stroke="#808080" stroke-opacity="0.1" stroke-width="0.5"/>
<rect x="823.107" y="200.25" width="102.874" height="99.5" stroke="#808080" stroke-opacity="0.1" stroke-width="0.5"/>
<rect x="925.448" y="200.25" width="102.874" height="99.5" stroke="#808080" stroke-opacity="0.1" stroke-width="0.5"/>
<rect x="1028.82" y="200.25" width="102.874" height="99.5" stroke="#808080" stroke-opacity="0.1" stroke-width="0.5"/>
<rect x="1131.16" y="200.25" width="102.874" height="99.5" stroke="#808080" stroke-opacity="0.1" stroke-width="0.5"/>
<rect x="1234.54" y="200.25" width="102.874" height="99.5" stroke="#808080" stroke-opacity="0.1" stroke-width="0.5"/>
<rect x="1336.88" y="200.25" width="102.874" height="99.5" stroke="#808080" stroke-opacity="0.1" stroke-width="0.5"/>
<rect x="0.25" y="100.25" width="102.802" height="99.5" stroke="#808080" stroke-opacity="0.1" stroke-width="0.5"/>
<rect x="102.519" y="100.25" width="102.802" height="99.5" stroke="#808080" stroke-opacity="0.1" stroke-width="0.5"/>
<rect x="1234.39" y="100.25" width="102.802" height="99.5" stroke="#808080" stroke-opacity="0.1" stroke-width="0.5"/>
<rect x="1336.66" y="100.25" width="102.802" height="99.5" stroke="#808080" stroke-opacity="0.1" stroke-width="0.5"/>
<rect x="0.25" y="0.25" width="102.5" height="99.5" stroke="#808080" stroke-opacity="0.1" stroke-width="0.5"/>
<rect x="1336.25" y="0.25" width="102.874" height="99.5" stroke="#808080" stroke-opacity="0.1" stroke-width="0.5"/>
</svg>
