<svg width="24" height="24" viewBox="0 0 24 24" fill="none" xmlns="http://www.w3.org/2000/svg">
<path fill-rule="evenodd" clip-rule="evenodd" d="M14.7506 2.65869H2.66517C1.24502 2.65869 0.09375 3.80997 0.09375 5.23012V8.65629C0.09375 9.04605 0.356704 9.38673 0.733744 9.48547C1.84946 9.77766 2.67162 10.7937 2.67162 11.9996C2.67162 13.2055 1.84945 14.2215 0.733744 14.5137C0.356704 14.6125 0.09375 14.9532 0.09375 15.3429V18.769C0.09375 20.1891 1.24502 21.3405 2.66517 21.3405H14.7506V18.4005C14.7506 17.8087 15.2303 17.329 15.822 17.329C16.4137 17.329 16.8934 17.8087 16.8934 18.4005V21.3405H21.3311C22.7514 21.3405 23.9025 20.1891 23.9025 18.769V15.3353C23.9025 14.9483 23.6433 14.6093 23.2698 14.508C22.1649 14.2084 21.3534 13.1977 21.3534 11.9996C21.3534 10.8015 22.1649 9.79077 23.2698 9.4912C23.6433 9.38992 23.9025 9.05094 23.9025 8.66394V5.23012C23.9025 3.80995 22.7514 2.65869 21.3311 2.65869H16.8934V5.61292C16.8934 6.20464 16.4137 6.68435 15.822 6.68435C15.2303 6.68435 14.7506 6.20464 14.7506 5.61292V2.65869ZM15.822 9.19897C16.4137 9.19897 16.8934 9.67866 16.8934 10.2704V13.7265C16.8934 14.3182 16.4137 14.7979 15.822 14.7979C15.2303 14.7979 14.7506 14.3182 14.7506 13.7265V10.2704C14.7506 9.67866 15.2303 9.19897 15.822 9.19897Z" fill="white"/>
</svg>
